<svg width="30" height="39" viewBox="0 0 30 39" fill="none" xmlns="http://www.w3.org/2000/svg">
<path d="M27.8288 4.7697H25.3774V2.83941C25.3774 1.74558 24.74 0.909119 23.9066 0.909119H2.33446C1.50099 0.909119 0.863636 1.74558 0.863636 2.83941V10.5606C0.863636 11.6544 1.50099 12.4909 2.33446 12.4909H23.9066C24.74 12.4909 25.3774 11.6544 25.3774 10.5606V8.63028H26.3579V15.708H13.1205C12.287 15.708 11.6497 16.5445 11.6497 17.6383V24.0726C10.8162 24.0726 10.1789 24.9091 10.1789 26.0029V36.2978C10.1789 37.3916 10.8162 38.2281 11.6497 38.2281H14.5913C15.4248 38.2281 16.0622 37.3916 16.0622 36.2978V26.0029C16.0622 24.9091 15.4248 24.0726 14.5913 24.0726V19.5686H27.8288C28.6622 19.5686 29.2996 18.7321 29.2996 17.6383V6.69999C29.2996 5.60616 28.6622 4.7697 27.8288 4.7697ZM3.80529 2.19598H10.1789V2.51769C10.1789 3.03244 9.83567 3.48284 9.44345 3.48284C8.51193 3.48284 7.72749 4.51233 7.72749 5.73485V7.02171C7.72749 7.53645 7.38429 7.98685 6.99207 7.98685C6.59985 7.98685 6.25666 7.53645 6.25666 7.02171C6.25666 5.79919 5.47222 4.7697 4.5407 4.7697C4.14848 4.7697 3.80529 4.3193 3.80529 3.80455V2.19598ZM20.4746 11.204H14.1011V10.8823C14.1011 10.3675 14.4443 9.91714 14.8365 9.91714C15.768 9.91714 16.5524 8.88765 16.5524 7.66514V6.37828C16.5524 5.86353 16.8956 5.41313 17.2878 5.41313C17.6801 5.41313 18.0233 5.86353 18.0233 6.37828C18.0233 7.60079 18.8077 8.63028 19.7392 8.63028C20.1314 8.63028 20.4746 9.08068 20.4746 9.59543V11.204ZM24.3968 10.5606C24.3968 10.9466 24.2007 11.204 23.9066 11.204H21.4552V9.59543C21.4552 8.37291 20.6707 7.34342 19.7392 7.34342C19.347 7.34342 19.0038 6.89302 19.0038 6.37828C19.0038 5.15576 18.2194 4.12627 17.2878 4.12627C16.3563 4.12627 15.5719 5.15576 15.5719 6.37828V7.66514C15.5719 8.17988 15.2287 8.63028 14.8365 8.63028C13.905 8.63028 13.1205 9.65977 13.1205 10.8823V11.204H2.33446C2.0403 11.204 1.84419 10.9466 1.84419 10.5606V2.83941C1.84419 2.45335 2.0403 2.19598 2.33446 2.19598H2.82474V3.80455C2.82474 5.02707 3.60918 6.05656 4.5407 6.05656C4.93292 6.05656 5.27611 6.50696 5.27611 7.02171C5.27611 8.24422 6.06055 9.27371 6.99207 9.27371C7.9236 9.27371 8.70804 8.24422 8.70804 7.02171V5.73485C8.70804 5.2201 9.05123 4.7697 9.44345 4.7697C10.375 4.7697 11.1594 3.74021 11.1594 2.51769V2.19598H23.9066C24.2007 2.19598 24.3968 2.45335 24.3968 2.83941V10.5606ZM15.0816 26.0029V36.2978C15.0816 36.6838 14.8855 36.9412 14.5913 36.9412H11.6497C11.3555 36.9412 11.1594 36.6838 11.1594 36.2978V26.0029C11.1594 25.6168 11.3555 25.3595 11.6497 25.3595H14.5913C14.8855 25.3595 15.0816 25.6168 15.0816 26.0029ZM28.319 17.6383C28.319 18.0244 28.1229 18.2817 27.8288 18.2817H14.1011C13.8069 18.2817 13.6108 18.5391 13.6108 18.9252V24.0726H12.6302V17.6383C12.6302 17.2522 12.8263 16.9949 13.1205 16.9949H26.8482C27.1424 16.9949 27.3385 16.7375 27.3385 16.3514V7.98685C27.3385 7.60079 27.1424 7.34342 26.8482 7.34342H25.3774V6.05656H27.8288C28.1229 6.05656 28.319 6.31393 28.319 6.69999V17.6383Z" fill="white"/>
</svg>
