<svg width="36" height="40" viewBox="0 0 36 40" fill="none" xmlns="http://www.w3.org/2000/svg">
<path d="M35.2187 8.71195L27.0428 3.99146C27.0789 3.80802 27.1001 3.61889 27.1001 3.42487C27.0999 1.81206 25.788 0.5 24.175 0.5C22.5621 0.5 21.25 1.81206 21.25 3.42502C21.25 5.03799 22.5621 6.35005 24.175 6.35005C25.127 6.35005 25.9659 5.88607 26.5005 5.17975L34.2435 9.65017V18.6499L26.45 23.1495L18.6562 18.6499V9.27507C18.6562 9.05042 18.5353 8.8624 18.3621 8.74557C18.3469 8.735 18.3346 8.72142 18.3185 8.71211L18.2759 8.68748C18.2683 8.68416 18.2625 8.67848 18.2549 8.67532L9.87482 3.83691C9.67354 3.72072 9.426 3.72072 9.22487 3.83691L0.781171 8.71195C0.579886 8.82814 0.456116 9.04269 0.456116 9.27491V19.025C0.456116 19.2574 0.579886 19.4719 0.781171 19.588L8.90613 24.2791V33.975C8.90613 34.2074 9.0299 34.4219 9.23119 34.538L17.6749 39.413C17.7754 39.4711 17.8875 39.5 17.9999 39.5C18.1123 39.5 18.2243 39.4711 18.325 39.413L26.1753 34.8806C26.6879 35.3228 27.3465 35.6 28.0751 35.6C29.688 35.6 31.0001 34.2879 31.0001 32.6749C31.0001 31.062 29.688 29.7499 28.0751 29.7499C26.4621 29.7499 25.1501 31.062 25.1501 32.6749C25.1501 33.0862 25.2372 33.4768 25.391 33.8321L18.0001 38.0994L10.2065 33.5999V24.2718L18.0001 19.772L26.1251 24.4632C26.2256 24.5213 26.3377 24.5501 26.4501 24.5501C26.5624 24.5501 26.6744 24.5213 26.7752 24.4632L35.2189 19.5881C35.4202 19.4719 35.5439 19.2574 35.5439 19.0252V9.27507C35.5435 9.04269 35.4197 8.82814 35.2187 8.71195ZM24.175 5.04998C23.2791 5.04998 22.5501 4.32094 22.5501 3.42502C22.5501 2.52911 23.2791 1.80006 24.175 1.80006C25.071 1.80006 25.8 2.52911 25.8 3.42502C25.8 4.32094 25.071 5.04998 24.175 5.04998ZM28.0749 31.05C28.9708 31.05 29.6999 31.779 29.6999 32.6749C29.6999 33.5709 28.9708 34.2999 28.0749 34.2999C27.7006 34.2999 27.3598 34.1676 27.0848 33.954C27.0816 33.8501 27.0622 33.7463 27.0066 33.65C26.9144 33.4908 26.7646 33.3871 26.599 33.3459C26.5052 33.1408 26.4498 32.9148 26.4498 32.6749C26.4498 31.779 27.1788 31.05 28.0749 31.05ZM9.54993 23.1495L1.75618 18.6499V9.65017L9.54977 5.15055L17.3435 9.65017L17.3437 18.6499L9.54993 23.1495Z" fill="white"/>
</svg>
