<svg width="23" height="38" viewBox="0 0 23 38" fill="none" xmlns="http://www.w3.org/2000/svg">
<path d="M22.204 35.6778L16.0918 28.3458V15.4934H16.8562C17.4898 15.4934 18.0041 14.9734 18.0041 14.33C18.0041 13.6866 17.4898 13.1666 16.8562 13.1666H14.9439C14.3103 13.1666 13.7961 13.6866 13.7961 14.33V28.7938C13.7961 29.0823 13.9017 29.3592 14.0922 29.5733L18.7685 35.2938H4.2312L8.90748 29.5733C9.09802 29.3604 9.20362 29.0823 9.20362 28.7938V14.33C9.20362 13.6866 8.69054 13.1666 8.05578 13.1666H6.14349C5.50874 13.1666 4.99566 13.6866 4.99566 14.33C4.99566 14.9734 5.50874 15.4934 6.14349 15.4934H6.90795V28.3458L0.795736 35.6778C0.492708 36.0187 0.414655 36.5096 0.598308 36.9296C0.781961 37.3496 1.19403 37.6207 1.64743 37.6207H21.3523C21.8057 37.6207 22.2166 37.3496 22.4014 36.9296C22.5851 36.5096 22.5082 36.0187 22.204 35.6778ZM10.3514 12.0078C11.6164 12.0078 12.6414 10.9689 12.6414 9.68677C12.6414 8.40583 11.6164 7.36689 10.3514 7.36689C9.08654 7.36689 8.06152 8.407 8.06152 9.68677C8.06152 10.9689 9.08654 12.0078 10.3514 12.0078ZM17.8296 8.55359C20.0667 8.55359 21.8803 6.72351 21.8803 4.46646C21.8803 2.20941 20.0679 0.379333 17.8296 0.379333C15.5936 0.379333 13.7789 2.20941 13.7789 4.46646C13.7789 6.72351 15.5936 8.55359 17.8296 8.55359ZM17.8112 2.69921C18.7674 2.69921 19.5456 3.48453 19.5456 4.44901C19.5456 5.41349 18.7685 6.19881 17.8112 6.19881C16.8539 6.19881 16.0768 5.41349 16.0768 4.44901C16.0768 3.48453 16.8539 2.69921 17.8112 2.69921Z" fill="#E10000"/>
</svg>
