<svg width="32" height="24" viewBox="0 0 32 24" fill="none" xmlns="http://www.w3.org/2000/svg">
<path fill-rule="evenodd" clip-rule="evenodd" d="M0.388861 4.16665C0.548962 4.16873 0.710867 4.20938 0.860643 4.29259L15.75 12.5645L30.6394 4.29259C30.7891 4.20938 30.951 4.16873 31.1111 4.16665C31.0697 2.53764 30.9046 1.57874 30.2463 0.920428C29.3676 0.041748 27.9534 0.041748 25.125 0.041748H6.375C3.54657 0.041748 2.13236 0.041748 1.25368 0.920428C0.595371 1.57874 0.430269 2.53764 0.388861 4.16665ZM31.125 6.31071L16.7213 14.3128C16.1172 14.6484 15.3828 14.6484 14.7787 14.3128L0.375 6.31071V17.9584C0.375 20.7868 0.375 22.2011 1.25368 23.0797C2.13236 23.9584 3.54657 23.9584 6.375 23.9584H25.125C27.9534 23.9584 29.3676 23.9584 30.2463 23.0797C31.125 22.2011 31.125 20.7868 31.125 17.9584V6.31071Z" fill="white"/>
</svg>
