<svg width="30" height="40" viewBox="0 0 30 40" fill="none" xmlns="http://www.w3.org/2000/svg">
<path d="M28.3361 25.3824C28.3359 25.3821 26.4678 23.4496 26.4678 23.4496C31.246 18.0411 31.1069 9.61896 26.0492 4.38684C23.5295 1.78037 20.1794 0.344849 16.6161 0.344849C13.2556 0.344849 10.0852 1.62213 7.62168 3.95365L4.89622 1.13413C4.65938 0.889206 4.27545 0.889206 4.03869 1.13413C3.80186 1.3792 3.80186 1.7763 4.03869 2.0213L4.47606 2.47375C-1.56179 9.18854 -1.42248 19.7327 4.89614 26.2693C7.97341 29.4526 11.9697 31.1189 16.0097 31.2706V32.5458H15.4033C15.1424 32.5458 14.9106 32.7185 14.828 32.9747L14.1577 35.055H10.9565C9.04528 35.055 7.45603 36.5069 7.16442 38.4005H6.91393C6.57906 38.4005 6.30756 38.6813 6.30756 39.0278C6.30756 39.3743 6.57906 39.655 6.91393 39.655H26.3182C26.653 39.655 26.9245 39.3743 26.9245 39.0278C26.9245 38.6813 26.653 38.4005 26.3182 38.4005H26.0677C25.7761 36.5069 24.1868 35.055 22.2756 35.055H19.0744L18.4041 32.9747C18.3215 32.7184 18.0898 32.5458 17.8288 32.5458H17.2224V31.2706C21.0739 31.1261 24.8849 29.6038 27.8985 26.7039L28.336 27.1563C28.4544 27.2788 28.6096 27.34 28.7648 27.34C28.92 27.34 29.0752 27.2788 29.1936 27.1563C29.4304 26.9112 29.4304 26.5142 29.1936 26.2692L28.3361 25.3824ZM17.5594 1.6371C20.0468 1.83365 22.3837 2.8062 24.3055 4.44204C24.4123 4.5589 24.4715 4.71069 24.4715 4.8723C24.4715 5.03983 24.4084 5.19738 24.2939 5.31585L22.3333 7.3441L21.3328 6.30913C21.2191 6.19151 21.0649 6.12548 20.904 6.12548C20.7432 6.12548 20.589 6.19158 20.4753 6.30913L15.187 11.7797L14.3294 10.8926L15.6157 9.56191C15.8526 9.31692 15.8526 8.91974 15.6157 8.67482C15.5011 8.55627 15.4381 8.39873 15.4381 8.2312C15.4381 8.06359 15.5012 7.90612 15.6157 7.78765L16.1874 7.19623C16.4243 6.95115 16.4243 6.55405 16.1874 6.30905L14.6153 4.68266L17.5594 1.6371ZM10.3205 3.41751C11.9869 2.36665 13.8761 1.75027 15.8563 1.62443L12.4714 5.12613C12.2345 5.37121 12.2345 5.76831 12.4714 6.0133C12.5897 6.13577 12.7449 6.19696 12.9001 6.19696C13.0553 6.19696 13.2105 6.13577 13.3289 6.0133L13.7577 5.56976L14.9011 6.7526L14.7582 6.90048C14.4146 7.25596 14.2254 7.72845 14.2254 8.2312C14.2254 8.51681 14.2865 8.79275 14.4022 9.04289L13.0431 10.4489C12.9293 10.5666 12.8655 10.7261 12.8655 10.8926C12.8655 11.059 12.9294 11.2184 13.0431 11.3362L14.3294 12.6669L13.6148 13.4061C13.378 13.6512 13.378 14.0483 13.6148 14.2933C13.7332 14.4158 13.8884 14.4769 14.0435 14.4769C14.1987 14.4769 14.3539 14.4158 14.4723 14.2933L15.6153 13.1109C15.6161 13.1101 19.1889 9.41404 19.1889 9.41404L20.0465 10.3011L15.9016 14.589C15.0347 15.4858 15.0347 16.945 15.9016 17.8418C16.7685 18.7386 18.179 18.7385 19.046 17.8418L19.1889 17.6939L20.7611 19.3202C21.1798 19.7533 21.7381 19.9918 22.3333 19.9918C22.9284 19.9918 23.4868 19.7532 23.9055 19.3202L25.9064 17.2503C26.0202 17.1326 26.084 16.9732 26.084 16.8067C26.084 16.6402 26.0201 16.4809 25.9064 16.3631L24.0484 14.4409C23.8116 14.1961 23.4276 14.1959 23.1909 14.4409C22.954 14.686 22.954 15.0831 23.1909 15.3281L24.6202 16.8067L23.0479 18.4331C22.8583 18.6293 22.6045 18.7373 22.3333 18.7373C22.062 18.7373 21.8083 18.6293 21.6186 18.433L19.6176 16.3632C19.3808 16.1182 18.9968 16.1182 18.7601 16.3632L18.1884 16.9546C17.7942 17.3621 17.1531 17.3621 16.7591 16.9546C16.5682 16.7572 16.4631 16.4946 16.4631 16.2153C16.4631 15.9361 16.5682 15.6735 16.7591 15.4761L20.0464 12.0754L21.4757 13.5539C21.5941 13.6764 21.7493 13.7376 21.9044 13.7376C22.0596 13.7376 22.2148 13.6764 22.3332 13.5539C22.57 13.3088 22.57 12.9117 22.3332 12.6667L20.904 11.1882L21.3327 10.7447C21.4465 10.627 21.5103 10.4675 21.5103 10.3011C21.5103 10.1346 21.4464 9.97521 21.3327 9.85743L20.0464 8.52679L20.9039 7.6397L21.9039 8.67421C21.9048 8.67513 23.3336 10.1533 23.3336 10.1533C23.5704 10.3982 23.9543 10.3982 24.1911 10.1533C24.428 9.90818 24.428 9.51109 24.1911 9.26609L23.1907 8.23112L25.1513 6.20279C25.3118 6.03672 25.4371 5.84439 25.5267 5.63609C29.2491 9.80346 29.7345 15.9679 26.9832 20.6564C25.837 20.0544 24.425 20.2611 23.4765 21.2423C22.5274 22.2242 22.3281 23.6868 22.9118 24.873C21.0678 26.0359 18.9507 26.6668 16.7395 26.6895L16.518 24.3252C16.4188 23.266 15.7713 21.8469 15.0439 21.0943L13.3288 19.32C13.092 19.0751 12.7081 19.0751 12.4713 19.32L9.04105 22.8686C8.84793 23.0683 8.69578 23.2985 8.58705 23.5473C8.40069 23.3765 8.21811 23.2001 8.04057 23.0164C7.70214 22.6663 7.38878 22.3001 7.09881 21.9207L10.0415 18.8766L10.1845 19.0244C10.3028 19.1469 10.458 19.2081 10.6132 19.2081C10.7684 19.2081 10.9236 19.1469 11.042 19.0244C11.2788 18.7794 11.2788 18.3823 11.042 18.1373L10.4702 17.5458L4.74125 11.6193C5.01519 10.2301 5.51773 8.88028 6.24871 7.63448C6.67844 7.8602 7.14557 7.9723 7.61189 7.9723C8.38881 7.9723 9.16291 7.66135 9.75563 7.0482C10.705 6.06636 10.9043 4.60366 10.3205 3.41751ZM26.2911 21.7101C25.9584 22.165 25.5925 22.602 25.1917 23.0166C24.7929 23.4291 24.3709 23.8085 23.9294 24.1551C23.6651 23.474 23.8046 22.6773 24.3341 22.1294C24.8634 21.5818 25.6331 21.4374 26.2911 21.7101ZM15.5165 26.6397C13.3741 26.4418 11.3482 25.6673 9.60904 24.3884C9.63161 24.1507 9.73188 23.9284 9.89865 23.7558L12.9001 20.6509L14.1864 21.9816C14.7137 22.527 15.2391 23.6787 15.3111 24.4464L15.5165 26.6397ZM6.38586 20.884C4.95158 18.5544 4.33297 15.8387 4.53076 13.1758L9.18399 17.9895L6.38586 20.884ZM8.04057 5.27408C8.43935 4.86155 8.86136 4.48212 9.30289 4.13539C9.56718 4.81649 9.42773 5.61329 8.8981 6.1611C8.36877 6.70868 7.59927 6.8531 6.9411 6.58039C7.27397 6.12563 7.63994 5.68861 8.04057 5.27408ZM17.3918 33.8006L17.7961 35.0551H17.0204C16.6855 35.0551 16.414 35.3359 16.414 35.6824C16.414 36.0289 16.6855 36.3097 17.0204 36.3097H22.2757C23.5159 36.3097 24.5574 37.2034 24.8319 38.4006H8.40031C8.67485 37.2034 9.71644 36.3097 10.9566 36.3097H14.5948C14.8558 36.3097 15.0876 36.1369 15.1701 35.8808L15.8405 33.8006H17.3918ZM5.75374 25.3823C-0.0921093 19.3349 -0.231196 9.58656 5.33418 3.36162L6.76438 4.84106C1.98624 10.2495 2.1254 18.6716 7.18312 23.9038C9.70278 26.5103 13.0528 27.9457 16.6161 27.9457C19.9766 27.9457 23.147 26.6686 25.6105 24.3371L27.0405 25.8164C21.023 31.5735 11.5997 31.4297 5.75374 25.3823Z" fill="white"/>
</svg>
