<svg width="37" height="36" viewBox="0 0 37 36" fill="none" xmlns="http://www.w3.org/2000/svg">
<path d="M18.5917 0.177734C8.67026 0.177734 0.625 8.35866 0.625 18.4511C0.625 26.525 5.773 33.3747 12.9117 35.791C13.8096 35.9602 14.1393 35.3946 14.1393 34.912C14.1393 34.4762 14.1226 33.0367 14.1149 31.5098C9.11654 32.6152 8.06183 29.3537 8.06183 29.3537C7.24454 27.2415 6.06695 26.6799 6.06695 26.6799C4.43683 25.5457 6.18983 25.569 6.18983 25.569C7.99399 25.6976 8.94397 27.4521 8.94397 27.4521C10.5464 30.2458 13.147 29.4381 14.1723 28.9712C14.3336 27.7904 14.7992 26.9837 15.313 26.5277C11.3224 26.0656 7.12731 24.4987 7.12731 17.4967C7.12731 15.5017 7.82916 13.8715 8.97849 12.5918C8.79194 12.1312 8.17697 10.2729 9.15254 7.75587C9.15254 7.75587 10.6613 7.26475 14.0947 9.629C15.5278 9.22411 17.0648 9.02106 18.5917 9.0141C20.1186 9.02106 21.6567 9.22411 23.0926 9.629C26.5218 7.26475 28.0284 7.75587 28.0284 7.75587C29.0064 10.2729 28.3911 12.1312 28.2046 12.5918C29.3566 13.8715 30.0537 15.5017 30.0537 17.4967C30.0537 24.5154 25.8506 26.0608 21.8498 26.5131C22.4943 27.0802 23.0685 28.1923 23.0685 29.8972C23.0685 32.3419 23.0476 34.3098 23.0476 34.912C23.0476 35.3982 23.371 35.968 24.2818 35.7886C31.4166 33.3696 36.5581 26.5222 36.5581 18.4511C36.5581 8.35866 28.514 0.177734 18.5917 0.177734Z" fill="white"/>
<path d="M7.4299 26.4145C7.39033 26.5056 7.2499 26.5326 7.12197 26.4702C6.99165 26.4106 6.91846 26.2868 6.96071 26.1958C6.99939 26.1023 7.14012 26.0765 7.27013 26.1386C7.40074 26.1985 7.47512 26.3235 7.4299 26.4145Z" fill="white"/>
<path d="M8.15767 27.2401C8.07199 27.3209 7.90448 27.2834 7.79083 27.1557C7.67331 27.0283 7.65129 26.8579 7.73817 26.7759C7.82653 26.6951 7.98898 26.7329 8.1068 26.8603C8.22432 26.9892 8.24723 27.1584 8.15767 27.2401Z" fill="white"/>
<path d="M8.86607 28.2925C8.75599 28.3703 8.57599 28.2974 8.46471 28.1349C8.35463 27.9724 8.35463 27.7775 8.46709 27.6994C8.57866 27.6214 8.75599 27.6916 8.86875 27.8529C8.97853 28.0178 8.97853 28.213 8.86607 28.2925Z" fill="white"/>
<path d="M9.83652 29.3092C9.73805 29.4196 9.52829 29.39 9.37477 29.2393C9.21768 29.0919 9.17395 28.8828 9.27272 28.7724C9.37239 28.6616 9.58333 28.6928 9.73805 28.8423C9.89395 28.9893 9.94155 29.1999 9.83652 29.3092Z" fill="white"/>
<path d="M11.1754 29.8996C11.1319 30.0427 10.9299 30.1078 10.7264 30.047C10.5232 29.9843 10.3902 29.8167 10.4313 29.6721C10.4735 29.528 10.6764 29.4602 10.8814 29.5253C11.0843 29.5876 11.2176 29.7541 11.1754 29.8996Z" fill="white"/>
<path d="M12.6457 30.0091C12.6508 30.1598 12.4782 30.2848 12.2646 30.2872C12.0498 30.2924 11.876 30.1704 11.8737 30.0221C11.8737 29.8699 12.0424 29.7462 12.2572 29.7425C12.4708 29.7383 12.6457 29.8593 12.6457 30.0091Z" fill="white"/>
<path d="M14.0141 29.7722C14.0397 29.9192 13.8912 30.0702 13.6791 30.1102C13.4705 30.1492 13.2774 30.0584 13.2509 29.9126C13.225 29.7619 13.3762 29.6109 13.5845 29.5718C13.7969 29.5343 13.987 29.6227 14.0141 29.7722Z" fill="white"/>
</svg>
