<svg width="48" height="42" viewBox="0 0 48 42" fill="none" xmlns="http://www.w3.org/2000/svg">
<path fill-rule="evenodd" clip-rule="evenodd" d="M16.7436 0H8.54084C7.1345 0 6.43133 0 5.9048 0.383826C5.37826 0.767652 5.16308 1.43709 4.73273 2.77596L1.4362 13.0318C1.51649 13.0111 1.60071 13 1.6875 13H14.0014L16.7436 0ZM0.919233 14.6402L0.731541 15.2241C0.557604 15.7652 0.470636 16.0358 0.528645 16.2995C0.586654 16.5633 0.779125 16.7724 1.16407 17.1906L19.4593 37.0669L14.0288 15H1.6875C1.37874 15 1.10267 14.8601 0.919233 14.6402ZM25.7294 40.1211L25.4715 40.4013C24.783 41.1494 24.4387 41.5234 24 41.5234C23.5613 41.5234 23.217 41.1494 22.5285 40.4013L22.2706 40.1211L16.0884 15H31.9116L25.7294 40.1211ZM28.5407 37.0669L46.8359 17.1906L46.836 17.1906C47.2209 16.7724 47.4134 16.5633 47.4714 16.2995C47.5294 16.0358 47.4424 15.7652 47.2685 15.2241L47.0808 14.6402C46.8973 14.8601 46.6213 15 46.3125 15H33.9712L28.5407 37.0669ZM46.5638 13.0318L43.2673 2.77596L43.2673 2.77593C42.8369 1.43708 42.6217 0.767649 42.0952 0.383826C41.5687 0 40.8655 0 39.4592 0H31.2564L33.9986 13H46.3125C46.3993 13 46.4835 13.0111 46.5638 13.0318ZM29.2124 0H18.7876L16.0454 13H31.9546L29.2124 0Z" fill="#E10000"/>
</svg>
