<svg width="27" height="30" viewBox="0 0 27 30" fill="none" xmlns="http://www.w3.org/2000/svg">
<path fill-rule="evenodd" clip-rule="evenodd" d="M13.8899 29.5297C16.0674 28.474 26.625 22.8576 26.625 13.2122C26.625 6.12459 20.7487 0.378906 13.5 0.378906C6.25126 0.378906 0.375 6.12459 0.375 13.2122C0.375 22.8576 10.9326 28.474 13.1101 29.5297C13.3612 29.6515 13.6388 29.6515 13.8899 29.5297ZM13.5 18.7122C16.6066 18.7122 19.125 16.2498 19.125 13.2122C19.125 10.1747 16.6066 7.71224 13.5 7.71224C10.3934 7.71224 7.875 10.1747 7.875 13.2122C7.875 16.2498 10.3934 18.7122 13.5 18.7122Z" fill="white"/>
</svg>
