<svg width="35" height="30" viewBox="0 0 35 30" fill="none" xmlns="http://www.w3.org/2000/svg">
<g clip-path="url(#clip0_30_1707)">
<path d="M6.41565 6.5625H0.996899C0.465649 6.5625 0.0406494 6.9375 0.0406494 7.40625V15.9375C0.0406494 16.5 0.465649 16.875 0.996899 16.875H6.41565C8.2219 16.875 9.60315 18.0938 9.60315 19.6875V9.375C9.60315 7.78125 8.2219 6.5625 6.41565 6.5625Z" fill="#8D65FF"/>
<path d="M19.2719 6.5625H13.8531C12.0469 6.5625 10.6656 7.78125 10.6656 9.375V19.6875C10.6656 18.0938 12.0469 16.875 13.8531 16.875H19.2719C19.8032 16.875 20.2281 16.5 20.2281 16.0312V7.40625C20.2281 6.9375 19.8032 6.5625 19.2719 6.5625Z" fill="#8D65FF"/>
<path d="M33.9344 16.5L30.8531 11.0625C30.7469 6 25.9656 1.875 20.2281 1.875C17.2531 1.875 14.4906 3 12.4719 4.875C12.8969 4.78125 13.3219 4.6875 13.8531 4.6875H19.2719C20.9719 4.6875 22.3531 5.90625 22.3531 7.40625V15.9375C22.3531 17.4375 20.9719 18.6562 19.2719 18.6562H13.8531C13.2156 18.6562 12.7906 19.0312 12.7906 19.5938V25.2188C12.7906 25.6875 13.1094 26.0625 13.6406 26.1562L24.2656 28.0312C24.3719 28.0312 24.3719 28.0312 24.4781 28.0312C24.6906 28.0312 25.0094 27.9375 25.1156 27.8438C25.3281 27.6562 25.5406 27.375 25.5406 27.0938V23.3438H27.6656C29.4719 23.3438 30.8531 22.125 30.8531 20.5312V17.7188H32.9781C33.2969 17.7188 33.7219 17.5312 33.9344 17.25C34.1469 16.9688 34.0406 16.7812 33.9344 16.5Z" fill="#8D65FF"/>
</g>
<defs>
<clipPath id="clip0_30_1707">
<rect width="34" height="30" fill="white" transform="translate(0.0406494)"/>
</clipPath>
</defs>
</svg>
