<svg width="25" height="32" viewBox="0 0 25 32" fill="none" xmlns="http://www.w3.org/2000/svg">
<path d="M2.56869 1.35604C0.369939 2.78204 -0.061998 7.23948 0.768127 10.8724C1.41463 13.7015 2.78913 17.4966 5.10688 21.0702C7.28725 24.4321 10.3292 27.4466 12.6487 29.1907C15.6273 31.4302 19.8733 32.8537 22.0721 31.4277C23.1839 30.7067 24.8357 28.7366 24.9111 28.3831C24.9111 28.3831 23.9424 26.8896 23.7299 26.5619L20.4816 21.5534C20.2403 21.1812 18.7265 21.5214 17.9575 21.957C16.9202 22.5447 15.9649 24.1217 15.9649 24.1217C15.2536 24.5327 14.6579 24.1232 13.4131 23.5504C11.8833 22.8465 10.1633 20.6595 8.79438 18.6787C7.54406 16.621 6.24863 14.1585 6.22988 12.4747C6.21444 11.1045 6.08356 10.3937 6.74888 9.91179C6.74888 9.91179 8.57838 9.68267 9.53806 8.97529C10.2494 8.45079 11.1773 7.20742 10.9359 6.83517L7.68769 1.82679C7.47513 1.49904 6.5065 0.0055425 6.5065 0.0055425C6.15294 -0.06977 3.6805 0.63498 2.56869 1.35604Z" fill="white"/>
</svg>
