<svg width="30" height="26" viewBox="0 0 30 26" fill="none" xmlns="http://www.w3.org/2000/svg">
<path d="M27.9263 24.2612C28.1614 24.2612 28.3838 24.1678 28.5319 24.0066C28.6799 23.8454 28.7376 23.634 28.6891 23.4312L28.1982 21.3813C28.4777 21.1426 28.6535 20.8094 28.6535 20.4389C28.6535 20.0489 28.4566 19.703 28.1511 19.4627V12.3441L26.1831 13.4186V19.4627C25.8776 19.703 25.6807 20.0489 25.6807 20.4389C25.6807 20.8095 25.8565 21.1427 26.136 21.3813L25.6451 23.4312C25.5965 23.6341 25.6543 23.8455 25.8023 24.0066C25.9503 24.1677 26.1727 24.2612 26.4078 24.2612H27.9263ZM28.5934 8.19011L15.7908 1.19732C15.4159 0.993535 14.9932 0.891235 14.5705 0.891235C14.1479 0.891235 13.7249 0.99345 13.3522 1.19732L0.549488 8.19011C0.207628 8.37675 0 8.70641 0 9.0612C0 9.41606 0.207628 9.74582 0.549488 9.93276L13.3522 16.9256C13.7248 17.1296 14.1478 17.2317 14.5705 17.2317C14.9931 17.2317 15.4159 17.1295 15.7908 16.9256L28.5934 9.93276C28.9352 9.74591 29.1429 9.41606 29.1429 9.0612C29.1429 8.70641 28.9352 8.37664 28.5934 8.19011ZM14.5705 18.968C13.773 18.968 12.9946 18.7726 12.3162 18.4021L4.84831 14.3227V21.347C4.84831 23.4259 9.20312 25.1087 14.5705 25.1087C19.9397 25.1087 24.2942 23.4258 24.2942 21.347V14.3227L16.8266 18.4021C16.1482 18.7726 15.368 18.968 14.5705 18.968Z" fill="#5182FF"/>
</svg>
