<svg width="37" height="36" viewBox="0 0 37 36" fill="none" xmlns="http://www.w3.org/2000/svg">
<path fill-rule="evenodd" clip-rule="evenodd" d="M36.625 18C36.625 27.9411 28.5661 36 18.625 36C8.68387 36 0.625 27.9411 0.625 18C0.625 8.05887 8.68387 0 18.625 0C28.5661 0 36.625 8.05887 36.625 18ZM19.1869 12.9979C17.4405 13.7396 13.95 15.2747 8.71552 17.6032C7.86553 17.9483 7.42026 18.286 7.37972 18.6161C7.31122 19.174 7.99552 19.3937 8.92737 19.6929C9.05412 19.7336 9.18546 19.7758 9.3201 19.8204C10.2369 20.1247 11.4701 20.4807 12.1113 20.4948C12.6928 20.5077 13.3419 20.2629 14.0585 19.7604C18.9492 16.3897 21.4738 14.6859 21.6324 14.6492C21.7442 14.6233 21.8991 14.5907 22.0041 14.686C22.1091 14.7812 22.0988 14.9617 22.0877 15.0101C22.0199 15.3052 19.3337 17.855 17.9436 19.1745C17.5103 19.5858 17.2029 19.8776 17.1401 19.9442C16.9993 20.0935 16.8558 20.2347 16.718 20.3704C15.8662 21.2088 15.2275 21.8374 16.7533 22.864C17.4866 23.3574 18.0733 23.7653 18.6586 24.1723C19.2979 24.6168 19.9355 25.0602 20.7605 25.6123C20.9706 25.753 21.1714 25.8991 21.3669 26.0414C22.1108 26.5829 22.7792 27.0694 23.6049 26.9918C24.0847 26.9467 24.5803 26.4861 24.832 25.1122C25.4269 21.8654 26.5961 14.8305 26.8663 11.9316C26.89 11.6776 26.8602 11.3526 26.8363 11.2099C26.8124 11.0672 26.7624 10.8639 26.5808 10.7134C26.3656 10.5352 26.0335 10.4976 25.885 10.5001C25.2096 10.5124 24.1735 10.8803 19.1869 12.9979Z" fill="white"/>
</svg>
