<svg width="37" height="36" viewBox="0 0 37 36" fill="none" xmlns="http://www.w3.org/2000/svg">
<path fill-rule="evenodd" clip-rule="evenodd" d="M18.625 0C8.68387 0 0.625 8.05887 0.625 18C0.625 27.9411 8.68387 36 18.625 36C28.5661 36 36.625 27.9411 36.625 18C36.625 8.05887 28.5661 0 18.625 0ZM18.7146 15.0307L18.6642 14.1873C18.513 12.0013 19.8402 10.0046 21.9401 9.23C22.7129 8.9546 24.0232 8.92017 24.88 9.16115C25.216 9.26443 25.8543 9.60869 26.3079 9.91852L27.1311 10.4865L28.0383 10.1939C28.5423 10.039 29.2142 9.78081 29.5166 9.60869C29.8022 9.45377 30.0542 9.36771 30.0542 9.41934C30.0542 9.71196 29.4326 10.7103 28.9118 11.2611C28.2063 12.0357 28.4079 12.1045 29.8358 11.5882C30.6926 11.2955 30.7094 11.2955 30.5414 11.6226C30.4406 11.7947 29.9198 12.3972 29.3654 12.948C28.4247 13.8947 28.3743 13.998 28.3743 14.7898C28.3743 16.0119 27.8031 18.5594 27.2319 19.9536C26.1735 22.57 23.9056 25.2724 21.6377 26.6322C18.4458 28.5428 14.1956 29.0248 10.6173 27.906C9.42453 27.5273 7.375 26.5633 7.375 26.3912C7.375 26.3396 7.99658 26.2707 8.75255 26.2535C10.3317 26.2191 11.9108 25.7716 13.2548 24.9798L14.162 24.429L13.1204 24.0675C11.642 23.5511 10.3149 22.3634 9.97891 21.2446C9.87811 20.8831 9.91171 20.8659 10.8525 20.8659L11.8268 20.8487L11.0037 20.4528C10.0293 19.9536 9.13894 19.1102 8.70215 18.2495C8.38296 17.6299 7.97978 16.0635 8.09737 15.943C8.13097 15.8914 8.48376 15.9947 8.88695 16.1324C10.0461 16.5627 10.1973 16.4594 9.52532 15.7365C8.26537 14.4283 7.87898 12.4832 8.48376 10.6415L8.76935 9.81524L9.87811 10.9341C12.146 13.189 14.8171 14.5316 17.8746 14.9275L18.7146 15.0307Z" fill="white"/>
</svg>
