<svg width="37" height="36" viewBox="0 0 37 36" fill="none" xmlns="http://www.w3.org/2000/svg">
<path fill-rule="evenodd" clip-rule="evenodd" d="M18.5581 0C8.61698 0 0.558105 8.05887 0.558105 18C0.558105 27.9411 8.61698 36 18.5581 36C28.4992 36 36.5581 27.9411 36.5581 18C36.5581 8.05887 28.4992 0 18.5581 0ZM20.0237 23.6821C19.8462 23.8693 19.4997 23.9071 19.4997 23.9071H18.3522C18.3522 23.9071 15.8204 24.0564 13.5901 21.7777C11.1579 19.2917 9.01026 14.3592 9.01026 14.3592C9.01026 14.3592 8.8863 14.0356 9.02059 13.8798C9.17178 13.7038 9.58403 13.6927 9.58403 13.6927L12.3271 13.6752C12.3271 13.6752 12.5853 13.7167 12.7703 13.8503C12.9234 13.9609 13.0088 14.1665 13.0088 14.1665C13.0088 14.1665 13.4521 15.2671 14.039 16.2627C15.1856 18.2067 15.719 18.6317 16.1078 18.4233C16.675 18.1201 16.505 15.6755 16.505 15.6755C16.505 15.6755 16.5153 14.7887 16.2195 14.3933C15.9904 14.0872 15.5584 13.9978 15.3678 13.9729C15.2128 13.9526 15.4664 13.6005 15.7951 13.4429C16.289 13.206 17.1605 13.1922 18.1906 13.2023C18.9935 13.2106 19.2246 13.2595 19.5382 13.3341C20.2661 13.5066 20.2434 14.0591 20.1944 15.2518C20.1797 15.6084 20.1627 16.0224 20.1627 16.5005C20.1627 16.6079 20.1595 16.7224 20.1562 16.8403C20.1392 17.4513 20.1197 18.1509 20.5299 18.4113C20.7402 18.5441 21.2539 18.4307 22.5395 16.2885C23.1489 15.2726 23.6053 14.0789 23.6053 14.0789C23.6053 14.0789 23.7058 13.866 23.8608 13.7747C24.0195 13.6816 24.2336 13.7102 24.2336 13.7102L27.1203 13.6927C27.1203 13.6927 27.988 13.5904 28.1279 13.9757C28.2753 14.3785 27.8039 15.3206 26.6244 16.8637C25.5056 18.3278 24.9611 18.8669 25.0111 19.3436C25.0476 19.692 25.4016 20.0071 26.0807 20.6255C27.4985 21.9176 27.8785 22.5974 27.9699 22.7607C27.9774 22.7743 27.983 22.7843 27.987 22.7908C28.6228 23.8259 27.2818 23.9071 27.2818 23.9071L24.7172 23.9421C24.7172 23.9421 24.1669 24.049 23.4419 23.5605C23.0622 23.3048 22.6911 22.8871 22.3376 22.4894C21.7978 21.8819 21.2992 21.3207 20.8736 21.4533C20.1589 21.6763 20.1805 23.1871 20.1805 23.1871C20.1805 23.1871 20.1862 23.5107 20.0237 23.6821Z" fill="white"/>
</svg>
