<svg width="31" height="22" viewBox="0 0 31 22" fill="none" xmlns="http://www.w3.org/2000/svg">
<path fill-rule="evenodd" clip-rule="evenodd" d="M29.4159 3.77829C29.0722 2.48359 28.059 1.46391 26.7727 1.11787C24.4412 0.489075 15.0918 0.489075 15.0918 0.489075C15.0918 0.489075 5.74253 0.489075 3.4109 1.11787C2.12456 1.46396 1.11146 2.48359 0.767613 3.77829C0.142868 6.12502 0.142868 11.0213 0.142868 11.0213C0.142868 11.0213 0.142868 15.9174 0.767613 18.2642C1.11146 19.559 2.12456 20.5361 3.4109 20.8822C5.74253 21.511 15.0918 21.5109 15.0918 21.5109C15.0918 21.5109 24.441 21.511 26.7727 20.8822C28.059 20.5361 29.0722 19.559 29.4159 18.2642C30.0407 15.9174 30.0407 11.0213 30.0407 11.0213C30.0407 11.0213 30.0407 6.12502 29.4159 3.77829ZM12.034 15.4667V6.57585L19.8482 11.0213L12.034 15.4667Z" fill="#E10000"/>
</svg>
