<svg width="37" height="36" viewBox="0 0 37 36" fill="none" xmlns="http://www.w3.org/2000/svg">
<path fill-rule="evenodd" clip-rule="evenodd" d="M18.625 0C8.68387 0 0.625 8.05887 0.625 18C0.625 27.9411 8.68387 36 18.625 36C28.5661 36 36.625 27.9411 36.625 18C36.625 8.05887 28.5661 0 18.625 0ZM26.1262 11.812C26.9523 12.0387 27.603 12.7067 27.8238 13.5549C28.225 15.0923 28.225 18.3 28.225 18.3C28.225 18.3 28.225 21.5076 27.8238 23.0451C27.603 23.8933 26.9523 24.5613 26.1262 24.7881C24.629 25.2 18.625 25.2 18.625 25.2C18.625 25.2 12.621 25.2 11.1237 24.7881C10.2975 24.5613 9.64693 23.8933 9.42613 23.0451C9.025 21.5076 9.025 18.3 9.025 18.3C9.025 18.3 9.025 15.0923 9.42613 13.5549C9.64693 12.7067 10.2975 12.0387 11.1237 11.812C12.621 11.4 18.625 11.4 18.625 11.4C18.625 11.4 24.629 11.4 26.1262 11.812Z" fill="white"/>
<path d="M16.825 21.6001V15.6001L21.625 18.6002L16.825 21.6001Z" fill="white"/>
</svg>
